<?xml version="1.0" encoding="UTF-8"?>
<svg id="Layer_1" data-name="Layer 1" xmlns="http://www.w3.org/2000/svg" viewBox="0 0 272.73 95.46">
  <defs>
    <style>
      .cls-1 {
        fill: #fff;
      }

      .cls-2 {
        fill: #cf2029;
      }

      .cls-3 {
        fill: #15273e;
      }

      .cls-4 {
        fill: #1b2940;
      }
    </style>
  </defs>
  <g>
    <path class="cls-2" d="m118.62,20.29c-16.74,0-30.36,13.65-30.36,30.42s13.62,30.42,30.36,30.42,30.36-13.65,30.36-30.42-13.62-30.42-30.36-30.42Zm.05,49.09c-10.3,0-18.65-8.35-18.65-18.65s8.35-18.65,18.65-18.65,18.65,8.35,18.65,18.65-8.35,18.65-18.65,18.65Z"/>
    <g>
      <polygon class="cls-4" points="204.15 20.49 204.15 20.5 204.13 20.5 181.11 20.51 174.49 20.52 174.49 20.49 204.15 20.49"/>
      <path class="cls-4" d="m204.15,20.5v.67c0,6.37-5.16,11.53-11.53,11.53l-18.13-.08h-.09v11.59h23.25v.14s-.04,1.3-.04,1.3c-.35,2.47-.57,2.74-1.14,4.11l-.35.66h0c-.14.27-.32.56-.54.86,0,0-.01.02-.02.02-.6.82-1.46,1.74-2.48,2.56,0,0,0,0-.01.01-1.93,1.45-4.33,2.32-6.93,2.32h-11.63v25.11h-11.55V20.28l11.55.21v.03h6.62s23.02-.02,23.02-.02h.02Z"/>
    </g>
    <path class="cls-4" d="m268.79,50.03c.06,2.14.02,9.02-4.09,16.19-2.8,4.88-6.25,7.71-7.24,8.49-.69.55-3.51,2.72-7.86,4.4-2.73,1.05-4.96,1.42-6.82,1.73-1.81.3-3.74.51-8.56.62-2.81.06-6.57.09-11.07-.04l-4.75.03c0-12.76,0-25.51,0-38.27.35,0,.82,0,1.38.06.83.09,2.38.35,4.06,1.22.66.34,2.64,1.45,4.22,3.76,1.4,2.04,1.81,4.03,1.96,5.1,0,.57,0,1.13.01,1.7.03,4.58.06,9.16.09,13.74,2.12-.09,3.82.02,4.91.03,9.16.04,10.79-.04,11.61-.31.03,0,.17-.06.31-.12,4.69-1.93,10.18-8.8,9.85-16.99-.31-7.62-5.53-12.96-9.37-15.25-4.47-2.66-9.63-2.86-9.63-2.86-.47-.01-.97-.01-1.48,0l-17.93.03v-12.74l19.52-.03c.99-.08,2.12-.1,3.36,0,2.5.2,4.56.82,6.08,1.43,1.84.54,4.31,1.46,6.97,3.05,1.66.99,5.07,3.26,8.12,7.14,5.74,7.31,6.28,15.37,6.35,17.89Z"/>
  </g>
  <g>
    <path class="cls-1" d="m48.18,23.93s32.84,5.52,20.49,40.54c0,0-17.15,4.5-35.74-7.7-1.16,8.86,2.56,21.21,9.92,27.32-12.68-.73-25.18-16.56-26.34-25.72-1.16-9.15.58-14.09,9.3-19.47s8.57-13.8,22.38-14.97Z"/>
    <g>
      <path class="cls-3" d="m40.85,14.82c-1.44-.2-2.91-.3-4.4-.3-6.81,0-13.13,2.08-18.36,5.65-4.14-2.82-8.96-4.71-14.17-5.38,5.25-3.6,11.6-5.71,18.45-5.71s13.23,2.12,18.48,5.74Z"/>
      <path class="cls-3" d="m73.79,47.46c-.22-1.97-.6-3.89-1.13-5.75-.23-.79-.48-1.57-.76-2.34-.09-.24-.18-.49-.27-.73-1.38-3.54-3.32-6.81-5.71-9.68,0,0,0,0,0,0-3.15-3.78-7.08-6.89-11.54-9.07-.69-.34-1.39-.65-2.1-.94-3.54-1.45-7.37-2.34-11.38-2.56-.63-.03-1.26-.05-1.9-.05-.4,0-.79,0-1.19.02h0c-.31,0-.63.03-.94.04-6.25.37-12.06,2.39-17.01,5.62-4.57,2.99-8.4,7.01-11.15,11.74-3.01,5.17-4.74,11.18-4.74,17.6,0,.19,0,.38,0,.57.07,4.24.89,8.3,2.34,12.04.32.84.68,1.66,1.07,2.47.03.05.05.11.07.16h0c.87,1.8,1.89,3.52,3.05,5.13h0c1.76,2.46,3.83,4.68,6.16,6.61.82.68,1.67,1.32,2.55,1.92h0c.21.14.42.28.63.42,5.5,3.6,12.08,5.69,19.15,5.69,2.2,0,4.35-.2,6.44-.59.92-.17,1.82-.38,2.71-.62-.87-.47-1.72-.99-2.52-1.55-.17-.03-.33-.06-.5-.09.09-.02.19-.04.28-.06-3.31-2.36-6.04-5.46-7.94-9.07-1.92-3.63-3.01-7.78-3.01-12.17,0-.97.05-1.93.16-2.87,2.57.78,4.97,1.94,7.14,3.41.09.06.19.13.28.19,1.44.98,2.98,1.82,4.59,2.52.78.34,1.59.65,2.4.92,2.82.94,5.84,1.44,8.98,1.44,3.49,0,6.83-.62,9.92-1.77.13-.05.26-.09.38-.14,1.09-.42,2.15-.91,3.17-1.46.59-1.45,1.08-2.95,1.47-4.49.7-2.75,1.07-5.64,1.07-8.61,0-1.32-.07-2.62-.21-3.9Zm-11.66-12.58h0c.28.45.54.91.77,1.39.12.25.23.49.33.75.52,1.3.85,2.69.94,4.16-3.59-.26-6.78-1.93-9.03-4.46h0c-.14-.16-.28-.32-.41-.49h0c-1.01-1.25-1.81-2.7-2.31-4.26-.34-1.05-.55-2.15-.62-3.29,4.36.31,8.14,2.71,10.35,6.21Zm-4.14,29.3c-3.34,0-6.55-.57-9.52-1.63-2.33-.82-4.52-1.94-6.53-3.31,0,0,0,0,0,0-2.05-1.41-4.31-2.54-6.72-3.34-.19-.06-.38-.13-.57-.18-.86-.26-1.73-.48-2.62-.66-.16-.03-.32-.06-.48-.09-.33,1.14-.59,2.32-.76,3.52-.1.71-.18,1.42-.22,2.15h0c-.03.53-.05,1.05-.05,1.59,0,5.12,1.48,9.9,4.03,13.92,1.31,2.07,2.9,3.94,4.73,5.56-2.53-1.13-4.85-2.66-6.88-4.5-2.54-2.3-4.62-5.1-6.09-8.24-1.52-3.23-2.39-6.83-2.45-10.63,0-.15,0-.29,0-.44,0-1.1.07-2.17.2-3.23-2.05.2-4.03.64-5.92,1.28.22-.49.46-.98.72-1.45,1.98-3.72,4.83-6.9,8.28-9.27.85-.58,1.73-1.11,2.64-1.59.23-.12.47-.24.71-.36.49-.24.99-.46,1.49-.67.36,1.94.56,3.94.58,5.98,0,.14,0,.27,0,.41,0,.69-.02,1.38-.06,2.06.24-.11.47-.23.71-.35.14-.07.27-.14.41-.22,1.74-.92,3.39-1.98,4.93-3.16.49-.38.97-.76,1.44-1.17h0c1.52-1.3,2.93-2.73,4.21-4.26h0c.28-.34.56-.69.83-1.04.16.02.31.04.47.06,2.64.37,5.16,1.13,7.49,2.23,3.36,1.59,6.33,3.87,8.71,6.66,3.03,3.54,5.12,7.91,5.9,12.72-3,1.07-6.23,1.65-9.59,1.65Z"/>
    </g>
  </g>
</svg>