<?xml version="1.0" encoding="UTF-8"?>
<svg id="Layer_1" data-name="Layer 1" xmlns="http://www.w3.org/2000/svg" viewBox="0 0 100 100">
  <defs>
    <style>
      .cls-1 {
        fill: #fff;
      }

      .cls-2 {
        fill: #15283e;
      }
    </style>
  </defs>
  <path class="cls-1" d="m60.4,23.15s37.05,6.23,23.11,45.73c0,0-19.34,5.08-40.32-8.69-1.31,10,2.88,23.93,11.19,30.82-14.31-.82-28.41-18.69-29.72-29.01-1.31-10.33.66-15.9,10.49-21.97,9.84-6.07,9.67-15.57,25.24-16.88"/>
  <path class="cls-2" d="m52.13,12.87c-1.63-.22-3.28-.33-4.97-.33-7.68,0-14.81,2.35-20.71,6.37-4.67-3.18-10.11-5.32-15.98-6.07,5.92-4.07,13.09-6.44,20.81-6.44s14.92,2.39,20.85,6.47"/>
  <path class="cls-2" d="m89.29,49.69c-.25-2.22-.68-4.39-1.28-6.49-.25-.89-.54-1.78-.86-2.64-.1-.27-.2-.55-.31-.82-1.56-4-3.75-7.68-6.45-10.92,0,0,0,0,0,0-3.55-4.26-7.99-7.77-13.02-10.23-.78-.38-1.57-.74-2.37-1.07-3.99-1.64-8.31-2.64-12.84-2.88-.71-.04-1.42-.06-2.14-.06-.45,0-.9,0-1.34.02h0c-.35.01-.71.03-1.06.05-7.05.42-13.61,2.7-19.19,6.34-5.15,3.37-9.47,7.91-12.58,13.24-3.4,5.83-5.35,12.62-5.35,19.85,0,.21,0,.43,0,.65.08,4.78,1,9.36,2.64,13.59.37.95.77,1.88,1.2,2.79.03.06.06.12.08.18h0c.98,2.03,2.14,3.97,3.44,5.78h0c1.99,2.78,4.32,5.28,6.95,7.46.93.76,1.88,1.49,2.88,2.17h0c.24.16.47.32.71.48,6.21,4.06,13.63,6.42,21.6,6.42,2.48,0,4.91-.23,7.27-.67,1.03-.19,2.05-.43,3.06-.7-.98-.53-1.94-1.12-2.85-1.75-.19-.03-.37-.06-.56-.1.11-.02.21-.05.32-.07-3.73-2.66-6.81-6.16-8.96-10.23-2.17-4.1-3.4-8.77-3.4-13.73,0-1.09.06-2.17.18-3.24,2.9.88,5.61,2.19,8.06,3.84.11.07.21.15.32.22,1.63,1.1,3.36,2.05,5.18,2.85.88.39,1.79.73,2.71,1.03,3.18,1.06,6.59,1.63,10.13,1.63,3.93,0,7.71-.7,11.19-2,.15-.05.29-.11.43-.16,1.23-.48,2.43-1.03,3.58-1.65.66-1.64,1.22-3.33,1.65-5.07.79-3.11,1.2-6.36,1.2-9.71,0-1.49-.08-2.95-.24-4.4m-13.16-14.19h0c.32.5.61,1.02.86,1.57.13.28.25.56.37.84.59,1.46.96,3.04,1.06,4.69-4.05-.29-7.65-2.17-10.18-5.03h0c-.16-.18-.32-.36-.47-.55h0c-1.14-1.41-2.04-3.04-2.61-4.81-.38-1.18-.62-2.42-.7-3.71,4.92.35,9.18,3.06,11.67,7.01m-4.67,33.06c-3.77,0-7.38-.65-10.75-1.84-2.63-.93-5.1-2.19-7.37-3.73,0,0,0,0,0,0-2.31-1.59-4.86-2.87-7.58-3.77-.21-.07-.43-.14-.65-.21-.97-.3-1.95-.54-2.96-.75-.18-.04-.36-.07-.54-.1-.37,1.29-.66,2.62-.85,3.97-.12.8-.2,1.61-.25,2.42h0c-.04.6-.05,1.19-.05,1.79,0,5.78,1.66,11.16,4.54,15.71,1.48,2.33,3.27,4.45,5.33,6.27-2.86-1.28-5.47-3-7.76-5.08-2.86-2.6-5.21-5.75-6.87-9.29-1.71-3.65-2.7-7.71-2.77-11.99,0-.16,0-.33,0-.49,0-1.24.08-2.45.23-3.65-2.31.23-4.55.72-6.68,1.44.25-.56.52-1.1.81-1.64,2.23-4.19,5.45-7.78,9.34-10.45.95-.66,1.95-1.26,2.98-1.8.26-.14.53-.27.8-.41.55-.27,1.11-.52,1.68-.75.4,2.19.63,4.44.65,6.74,0,.15,0,.31,0,.46,0,.78-.02,1.55-.07,2.32.27-.13.53-.26.8-.4.15-.08.31-.16.46-.24,1.96-1.03,3.82-2.23,5.56-3.57.55-.43,1.1-.86,1.63-1.31h0c1.72-1.47,3.3-3.08,4.75-4.81h0c.32-.39.63-.77.93-1.17.18.02.35.04.53.07,2.98.41,5.82,1.28,8.45,2.52,3.79,1.79,7.14,4.36,9.83,7.51,3.42,4,5.78,8.93,6.66,14.35-3.38,1.21-7.02,1.86-10.82,1.86"/>
</svg>